<?xml version="1.0" encoding="UTF-8" standalone="no"?>
<svg
   version="1.1"
   width="400"
   height="150.09245"
   id="svg46"
   sodipodi:docname="TRT_Conseil _Logo.svg"
   inkscape:version="1.1.2 (76b9e6a115, 2022-02-25)"
   xmlns:inkscape="http://www.inkscape.org/namespaces/inkscape"
   xmlns:sodipodi="http://sodipodi.sourceforge.net/DTD/sodipodi-0.dtd"
   xmlns="http://www.w3.org/2000/svg"
   xmlns:svg="http://www.w3.org/2000/svg">
  <defs
     id="defs50" />
  <sodipodi:namedview
     id="namedview48"
     pagecolor="#ffffff"
     bordercolor="#666666"
     borderopacity="1.0"
     inkscape:pageshadow="2"
     inkscape:pageopacity="0.0"
     inkscape:pagecheckerboard="0"
     showgrid="false"
     inkscape:zoom="1.438"
     inkscape:cx="199.58275"
     inkscape:cy="74.756606"
     inkscape:window-width="3440"
     inkscape:window-height="1376"
     inkscape:window-x="1920"
     inkscape:window-y="27"
     inkscape:window-maximized="1"
     inkscape:current-layer="svg46" />
  <g
     data-paper-data="{&quot;description&quot;:&quot;Logo for TRT Conseil\n====================\n\nThis logo was generated by MarkMaker at http://emblemmatic.org/markmaker/ and may be composed of elements designed by others.\n\nThe font is Brawler designed by Cyreal and released under the OFL license via Google Fonts: https://www.google.com/fonts/specimen/Brawler. The font includes this copyright statement: Copyright (c) 2011 by Oleg Frolov | Cyreal (a@cyreal.org). All rights reserved.\n\nMarkMaker uses semantic data from the Princeton University WordNet database http://wordnet.princeton.edu and font descriptions from Google Fonts https://www.google.com/fonts.&quot;}"
     fill="none"
     fill-rule="nonzero"
     stroke="none"
     stroke-width="none"
     stroke-linecap="butt"
     stroke-linejoin="miter"
     stroke-miterlimit="10"
     stroke-dasharray="none"
     stroke-dashoffset="0"
     font-family="none"
     font-weight="none"
     font-size="none"
     text-anchor="none"
     style="mix-blend-mode:normal"
     id="g44"
     transform="translate(-50,-174.95377)">
    <path
       d="M 50,325.04622 V 174.95377 h 400 v 150.09245 z"
       fill="#162926"
       stroke-width="0"
       id="path2" />
    <g
       data-paper-data="{&quot;elementType&quot;:&quot;logo&quot;}"
       fill="#fefeff"
       stroke-width="1"
       id="g34">
      <g
         data-paper-data="{&quot;elementType&quot;:&quot;text&quot;}"
         id="g32">
        <g
           data-paper-data="{&quot;baseline&quot;:70.01953125,&quot;elementType&quot;:&quot;row&quot;}"
           id="g12">
          <g
             data-paper-data="{&quot;baselineProportion&quot;:1,&quot;fontSize&quot;:100,&quot;baseline&quot;:70.01953125,&quot;elementType&quot;:&quot;word&quot;}"
             id="g10">
            <path
               d="m 85.64577,224.48902 -2.31244,-0.47609 v -8.77367 h 27.25051 v 8.77367 l -2.31244,0.47609 -1.54163,-6.68794 H 99.3617 v 26.97846 l 4.39817,0.88417 -0.45342,2.08573 H 90.29331 v -1.63231 l 4.42084,-1.33759 v -26.97846 h -7.52676 z"
               data-paper-data="{&quot;elementType&quot;:&quot;letter&quot;,&quot;baseline&quot;:70.01953125,&quot;baselineProportion&quot;:1,&quot;fontSize&quot;:100}"
               id="path4" />
            <path
               d="m 126.69239,215.23926 c 1.42071,0 2.89811,0.10202 4.43218,0.30606 1.53407,0.20404 2.93589,0.63857 4.20547,1.30358 1.26957,0.66502 2.32378,1.65498 3.1626,2.9699 0.83883,1.31492 1.25824,3.09081 1.25824,5.32768 0,1.07309 -0.15492,2.04417 -0.46476,2.91322 -0.30984,0.86905 -0.72925,1.62853 -1.25824,2.27843 -0.52899,0.6499 -1.14866,1.2129 -1.85902,1.68899 -0.71036,0.47609 -1.48117,0.87283 -2.31244,1.19023 l 7.09602,11.69822 3.76338,0.74814 -0.47609,2.08573 h -7.00533 l -7.8895,-13.46656 c -0.93707,0.0907 -1.82124,0.13603 -2.6525,0.13603 h -2.9699 v 10.36064 l 4.42084,0.88417 -0.47609,2.08573 h -12.99047 v -1.63231 l 4.39817,-1.33759 v -26.57038 l -4.39817,-0.8615 0.45342,-2.1084 h 11.5622 m -2.96991,2.56181 v 14.07868 h 2.9699 c 0.99752,0 1.98371,-0.0794 2.95856,-0.23805 0.97485,-0.1587 1.84768,-0.47609 2.6185,-0.95218 0.77081,-0.47609 1.39804,-1.15622 1.88169,-2.04039 0.48365,-0.88417 0.72547,-2.05172 0.72547,-3.50267 0,-1.52651 -0.24182,-2.76208 -0.72547,-3.7067 -0.48365,-0.94462 -1.11088,-1.68521 -1.88169,-2.22176 -0.77081,-0.53655 -1.64365,-0.90684 -2.6185,-1.11088 -0.97485,-0.20404 -1.96104,-0.30606 -2.95856,-0.30606 z"
               data-paper-data="{&quot;elementType&quot;:&quot;letter&quot;,&quot;baseline&quot;:70.01953125,&quot;baselineProportion&quot;:1,&quot;fontSize&quot;:100}"
               id="path6" />
            <path
               d="m 148.19663,224.48902 -2.31244,-0.47609 v -8.77367 h 27.25051 v 8.77367 l -2.31244,0.47609 -1.54163,-6.68794 h -7.36807 v 26.97846 l 4.39817,0.88417 -0.45342,2.08573 h -13.01314 v -1.63231 l 4.42084,-1.33759 v -26.97846 h -7.52676 z"
               data-paper-data="{&quot;elementType&quot;:&quot;letter&quot;,&quot;baseline&quot;:70.01953125,&quot;baselineProportion&quot;:1,&quot;fontSize&quot;:100}"
               id="path8" />
          </g>
        </g>
        <g
           data-paper-data="{&quot;baseline&quot;:75,&quot;elementType&quot;:&quot;row&quot;}"
           id="g30">
          <g
             data-paper-data="{&quot;baselineProportion&quot;:0.9814696485623003,&quot;fontSize&quot;:100,&quot;baseline&quot;:75,&quot;elementType&quot;:&quot;word&quot;}"
             id="g28">
            <path
               d="m 105.30151,254.69903 c -0.74059,-0.48365 -1.5983,-0.79348 -2.57316,-0.92951 -0.97485,-0.13603 -1.93081,-0.20404 -2.86788,-0.20404 -1.48117,0 -2.92456,0.28717 -4.33016,0.8615 -1.4056,0.57433 -2.6525,1.4585 -3.74071,2.6525 -1.08821,1.194 -1.95726,2.69785 -2.60716,4.51152 -0.6499,1.81368 -0.97485,3.94475 -0.97485,6.39322 0,2.64495 0.32495,4.87048 0.97485,6.6766 0.6499,1.80612 1.53407,3.26084 2.6525,4.36416 1.11843,1.10332 2.40312,1.90058 3.85407,2.39179 1.45094,0.4912 2.98501,0.74436 4.60221,0.75948 1.17889,-0.0151 2.17641,-0.14736 2.99257,-0.39674 0.81616,-0.24938 1.57941,-0.55544 2.28977,-0.91817 l 1.67765,-7.1867 2.35778,0.49876 v 7.93484 c -1.33003,0.6499 -2.83009,1.25446 -4.50019,1.81368 -1.6701,0.55922 -3.64625,0.83883 -5.92846,0.83883 -2.11596,0 -4.13367,-0.35896 -6.05315,-1.07687 -1.91948,-0.71791 -3.60469,-1.77967 -5.05563,-3.18527 -1.45094,-1.4056 -2.60338,-3.15882 -3.45732,-5.25967 -0.85394,-2.10084 -1.28091,-4.51908 -1.28091,-7.25471 0,-2.67518 0.47231,-5.05941 1.41694,-7.15269 0.94462,-2.09329 2.2142,-3.86918 3.80872,-5.32768 1.59453,-1.4585 3.43843,-2.57693 5.53172,-3.3553 2.09329,-0.77837 4.28104,-1.16756 6.56325,-1.16756 1.42071,0 2.84521,0.15492 4.27348,0.46476 1.42827,0.30984 2.85276,0.79726 4.27348,1.46228 v 7.91217 l -2.33511,0.47609 z"
               data-paper-data="{&quot;elementType&quot;:&quot;letter&quot;,&quot;baseline&quot;:71.337890625,&quot;baselineProportion&quot;:0.9805369127516779,&quot;fontSize&quot;:100}"
               id="path14" />
            <path
               d="m 126.80575,259.50528 c 2.07062,0 3.88052,0.34762 5.4297,1.04286 1.54918,0.69524 2.83387,1.62097 3.85407,2.77719 1.02019,1.15622 1.77967,2.47869 2.27843,3.96742 0.49876,1.48873 0.74814,3.0039 0.74814,4.54553 0,1.58697 -0.25694,3.12859 -0.77081,4.62488 -0.51388,1.49628 -1.25824,2.84143 -2.23309,4.03543 -0.97485,1.194 -2.18019,2.15374 -3.61602,2.87921 -1.43583,0.72547 -3.08325,1.08821 -4.94227,1.08821 -2.08573,0 -3.89941,-0.34762 -5.44103,-1.04286 -1.54163,-0.69524 -2.82631,-1.62097 -3.85407,-2.77719 -1.02775,-1.15622 -1.78723,-2.47869 -2.27843,-3.96742 -0.4912,-1.48873 -0.73681,-3.0039 -0.73681,-4.54553 0,-1.58697 0.25694,-3.12859 0.77081,-4.62488 0.51388,-1.49628 1.25824,-2.84143 2.23309,-4.03543 0.97485,-1.194 2.18019,-2.15374 3.61602,-2.87921 1.43583,-0.72547 3.08325,-1.08821 4.94227,-1.08821 z m 0.7028,22.42159 c 1.23935,0 2.29733,-0.27205 3.17394,-0.81616 0.87661,-0.5441 1.59453,-1.2658 2.15374,-2.16508 0.55922,-0.89928 0.97107,-1.91948 1.23557,-3.06058 0.26449,-1.14111 0.39674,-2.31622 0.39674,-3.52534 0,-1.26957 -0.12469,-2.52404 -0.37407,-3.76338 -0.24938,-1.23935 -0.66879,-2.34645 -1.25824,-3.3213 -0.58945,-0.97485 -1.37159,-1.757 -2.34645,-2.34645 -0.97485,-0.58945 -2.18775,-0.88417 -3.63869,-0.88417 -1.23935,0 -2.3011,0.27205 -3.18527,0.81616 -0.88417,0.5441 -1.60208,1.2658 -2.15374,2.16508 -0.55166,0.89928 -0.95974,1.91948 -1.22423,3.06058 -0.26449,1.14111 -0.39674,2.31622 -0.39674,3.52534 0,1.26957 0.12091,2.52404 0.36274,3.76338 0.24182,1.23935 0.65746,2.34645 1.2469,3.3213 0.58945,0.97485 1.37159,1.757 2.34645,2.34645 0.97485,0.58945 2.19531,0.88417 3.66136,0.88417"
               data-paper-data="{&quot;elementType&quot;:&quot;letter&quot;,&quot;baseline&quot;:52.978515625,&quot;baselineProportion&quot;:0.9854677565849228,&quot;fontSize&quot;:100}"
               id="path16" />
            <path
               d="m 167.08155,281.22407 3.71804,0.79348 -0.47609,2.08573 h -10.99542 v -1.38293 l 3.55934,-1.4056 v -12.31034 c 0,-1.13355 -0.0907,-2.07439 -0.27205,-2.82254 -0.18137,-0.74814 -0.4572,-1.33003 -0.82749,-1.74567 -0.37029,-0.41563 -0.83505,-0.69902 -1.39427,-0.85016 -0.55922,-0.15114 -1.20912,-0.22671 -1.9497,-0.22671 -0.61967,0 -1.2469,0.0529 -1.88169,0.1587 -0.63479,0.1058 -1.23935,0.26827 -1.81368,0.48743 -0.57433,0.21915 -1.09954,0.46476 -1.57563,0.73681 -0.47609,0.27205 -0.87283,0.597 -1.19023,0.97485 v 15.50695 l 3.53667,0.65746 -0.47609,2.22176 h -11.22213 v -1.38293 l 4.03543,-1.4056 v -17.77404 l -3.85407,-0.74814 -0.22671,-2.04039 8.20689,-1.11088 v 3.80872 c 0.52899,-0.6499 1.12599,-1.21668 1.79101,-1.70032 0.66502,-0.48365 1.3527,-0.88795 2.06306,-1.2129 0.71036,-0.32495 1.42071,-0.57055 2.13107,-0.73681 0.71036,-0.16625 1.39049,-0.24938 2.04039,-0.24938 2.23687,0 3.95986,0.68013 5.16898,2.04039 1.20912,1.36026 1.84391,3.52156 1.90436,6.4839 z"
               data-paper-data="{&quot;elementType&quot;:&quot;letter&quot;,&quot;baseline&quot;:52.880859375,&quot;baselineProportion&quot;:1,&quot;fontSize&quot;:100}"
               id="path18" />
            <path
               d="m 175.00587,276.75789 2.42579,-0.40808 1.2469,4.60221 c 0.80104,0.33251 1.5114,0.59322 2.13107,0.78215 0.61967,0.18892 1.38293,0.28339 2.28977,0.28339 1.39049,0 2.52781,-0.30984 3.41198,-0.92951 0.88417,-0.61967 1.34137,-1.62475 1.37159,-3.01524 0.0302,-0.90684 -0.25694,-1.64365 -0.8615,-2.21042 -0.60456,-0.56677 -1.37159,-1.07687 -2.3011,-1.53029 -0.92951,-0.45342 -1.92703,-0.88039 -2.99257,-1.28091 -1.06554,-0.40052 -2.06306,-0.8955 -2.99257,-1.48495 -0.92951,-0.58945 -1.7041,-1.2998 -2.32378,-2.13107 -0.61967,-0.83127 -0.92951,-1.8968 -0.92951,-3.19661 0,-1.20912 0.29472,-2.23309 0.88417,-3.07192 0.58945,-0.83883 1.34514,-1.52273 2.2671,-2.05172 0.92195,-0.52899 1.96482,-0.90684 3.12859,-1.13355 1.16378,-0.22671 2.30488,-0.34006 3.42332,-0.34006 1.33003,0 2.54293,0.1398 3.63869,0.41941 1.09576,0.27961 1.87791,0.64612 2.34645,1.09954 v 5.80377 l -2.42579,0.43075 -1.2469,-4.73823 c -0.52899,-0.15114 -1.00886,-0.26827 -1.43961,-0.3514 -0.43075,-0.0831 -1.01642,-0.12469 -1.757,-0.12469 -0.58945,0 -1.15622,0.0567 -1.70032,0.17003 -0.5441,0.11335 -1.02397,0.29094 -1.43961,0.53277 -0.41563,0.24182 -0.74814,0.58189 -0.99752,1.02019 -0.24938,0.43831 -0.37407,0.98241 -0.37407,1.63231 0,0.92195 0.30984,1.68521 0.92951,2.28977 0.61967,0.60456 1.38671,1.14111 2.3011,1.60964 0.9144,0.46853 1.91192,0.91062 2.99257,1.32625 1.08065,0.41563 2.07817,0.90306 2.99257,1.46228 0.9144,0.55922 1.68143,1.2469 2.3011,2.06306 0.61967,0.81616 0.92951,1.84391 0.92951,3.08325 0,1.36026 -0.25694,2.50514 -0.77081,3.43465 -0.51388,0.92951 -1.20156,1.67387 -2.06306,2.23309 -0.8615,0.55922 -1.84391,0.95218 -2.94723,1.17889 -1.10332,0.22671 -2.23687,0.34006 -3.40065,0.34006 -1.52651,0 -3.00013,-0.15114 -4.42084,-0.45342 -1.42071,-0.30228 -2.62983,-0.67257 -3.62736,-1.11088 z"
               data-paper-data="{&quot;elementType&quot;:&quot;letter&quot;,&quot;baseline&quot;:52.685546875,&quot;baselineProportion&quot;:0.9818016378525932,&quot;fontSize&quot;:100}"
               id="path20" />
            <path
               d="m 202.08717,271.65692 c 0,1.55674 0.20782,2.93589 0.62345,4.13745 0.41563,1.20156 0.99374,2.22931 1.73433,3.08325 0.74059,0.85394 1.61342,1.50384 2.6185,1.9497 1.00508,0.44586 2.09707,0.66879 3.27596,0.66879 2.17641,0 4.45107,-0.7557 6.82396,-2.2671 l 1.02019,1.76834 c -1.5114,1.17889 -3.07192,2.05928 -4.68156,2.64117 -1.60964,0.58189 -3.18527,0.87283 -4.7269,0.87283 -1.55674,0 -3.01524,-0.27583 -4.3755,-0.82749 -1.36026,-0.55166 -2.55804,-1.36404 -3.59335,-2.43713 -1.03531,-1.07309 -1.85524,-2.38801 -2.4598,-3.94475 -0.60456,-1.55674 -0.90684,-3.34775 -0.90684,-5.37302 0,-2.04039 0.33251,-3.83517 0.99752,-5.38436 0.66502,-1.54918 1.53029,-2.84143 2.59583,-3.87674 1.06554,-1.03531 2.26332,-1.80612 3.59335,-2.31244 1.33003,-0.50632 2.66006,-0.75948 3.99009,-0.75948 2.08573,0 3.77094,0.35518 5.05563,1.06554 1.28469,0.71036 2.28977,1.63609 3.01524,2.77719 0.72547,1.14111 1.22045,2.43335 1.48495,3.87674 0.26449,1.44339 0.39674,2.89055 0.39674,4.34149 h -16.4818 m 11.83426,-2.49379 c 0,-1.20912 -0.15492,-2.26332 -0.46476,-3.1626 -0.30984,-0.89928 -0.71414,-1.63609 -1.2129,-2.21042 -0.49876,-0.57433 -1.08065,-1.0013 -1.74567,-1.28091 -0.66502,-0.27961 -1.33759,-0.41941 -2.01772,-0.41941 -0.74059,0 -1.47361,0.15492 -2.19908,0.46476 -0.72547,0.30984 -1.38293,0.76703 -1.97237,1.37159 -0.58945,0.60456 -1.07687,1.34137 -1.46228,2.21042 -0.38541,0.86905 -0.59322,1.87791 -0.62345,3.02658 z"
               data-paper-data="{&quot;elementType&quot;:&quot;letter&quot;,&quot;baseline&quot;:52.783203125,&quot;baselineProportion&quot;:0.9836214740673339,&quot;fontSize&quot;:100}"
               id="path22" />
            <path
               d="m 231.43556,281.22407 3.49133,0.65746 -0.47609,2.22176 h -11.26747 v -1.38293 l 4.08078,-1.4056 v -17.95541 l -3.76338,-0.7028 -0.22671,-1.90436 8.16155,-1.11088 v 21.58277 m -5.71309,-28.3614 c 0.78593,-1.36026 1.87413,-2.43335 3.26462,-3.21928 1.36026,0.71036 2.39557,1.75322 3.10592,3.12859 -0.80104,1.36026 -1.88169,2.42579 -3.24195,3.19661 -0.6499,-0.34762 -1.2469,-0.78971 -1.79101,-1.32625 -0.5441,-0.53655 -0.98997,-1.12977 -1.33759,-1.77967 z"
               data-paper-data="{&quot;elementType&quot;:&quot;letter&quot;,&quot;baseline&quot;:74.21875,&quot;baselineProportion&quot;:1,&quot;fontSize&quot;:100}"
               id="path24" />
            <path
               d="m 246.36522,281.22407 3.94475,0.65746 -0.45342,2.22176 h -11.76624 v -1.38293 l 4.10345,-1.4056 v -28.31605 l -3.76338,-0.7028 -0.22671,-1.90436 8.16155,-1.11088 z"
               data-paper-data="{&quot;elementType&quot;:&quot;letter&quot;,&quot;baseline&quot;:75,&quot;baselineProportion&quot;:1,&quot;fontSize&quot;:100}"
               id="path26" />
          </g>
        </g>
      </g>
    </g>
    <g
       data-paper-data="{&quot;elementType&quot;:&quot;emblem&quot;}"
       fill="#fefeff"
       stroke-width="1"
       id="g42">
      <g
         data-paper-data="{&quot;baselineProportion&quot;:0.9805369127516779,&quot;fontSize&quot;:100,&quot;baseline&quot;:71.337890625,&quot;elementType&quot;:&quot;word&quot;}"
         id="g40">
        <path
           d="m 279.23607,232.64296 -5.71103,-1.1758 v -21.66831 h 67.30053 v 21.66831 l -5.71103,1.1758 -3.80735,-16.51719 h -18.1969 v 66.62865 l 10.86215,2.18363 -1.11981,5.15112 h -32.13852 v -4.03131 l 10.91814,-3.30344 v -66.62865 h -18.58883 z"
           data-paper-data="{&quot;elementType&quot;:&quot;letter&quot;,&quot;baseline&quot;:70.01953125,&quot;baselineProportion&quot;:1,&quot;fontSize&quot;:100}"
           id="path36" />
        <path
           d="m 406.02848,217.46954 c -1.82902,-1.19446 -3.94733,-1.95967 -6.35492,-2.29561 -2.40759,-0.33594 -4.76852,-0.50391 -7.08279,-0.50391 -3.65804,0 -7.22277,0.70921 -10.69418,2.12764 -3.47141,1.41842 -6.55088,3.60205 -9.23843,6.55088 -2.68754,2.94883 -4.83384,6.66286 -6.4389,11.1421 -1.60506,4.47924 -2.40759,9.74234 -2.40759,15.78931 0,6.53222 0.80253,12.02862 2.40759,16.48919 1.60506,4.46057 3.78869,8.05329 6.55088,10.77816 2.7622,2.72487 5.93499,4.69387 9.51838,5.90699 3.58339,1.21313 7.37208,1.83835 11.36606,1.87568 2.9115,-0.0373 5.37508,-0.36394 7.39074,-0.97983 2.01566,-0.6159 3.90067,-1.37177 5.65504,-2.26761 l 4.14329,-17.74898 5.82301,1.23179 V 285.162 c -3.28477,1.60506 -6.98948,3.09814 -11.11411,4.47924 -4.12463,1.3811 -9.00513,2.07165 -14.6415,2.07165 -5.22578,0 -10.20893,-0.88652 -14.94945,-2.65955 -4.74053,-1.77303 -8.90248,-4.39525 -12.48587,-7.86666 -3.58339,-3.47141 -6.42957,-7.80134 -8.53854,-12.98979 -2.10897,-5.18845 -3.16346,-11.16076 -3.16346,-17.91695 0,-6.60687 1.16647,-12.4952 3.4994,-17.66499 2.33294,-5.16979 5.4684,-9.5557 9.4064,-13.15776 3.938,-3.60205 8.49189,-6.36425 13.66167,-8.28659 5.16979,-1.92234 10.57286,-2.88351 16.20924,-2.88351 3.50874,0 7.0268,0.3826 10.5542,1.1478 3.5274,0.7652 7.04547,1.969 10.5542,3.61138 v 19.54067 l -5.76702,1.1758 z"
           data-paper-data="{&quot;elementType&quot;:&quot;letter&quot;,&quot;baseline&quot;:71.337890625,&quot;baselineProportion&quot;:0.9805369127516779,&quot;fontSize&quot;:100}"
           id="path38" />
      </g>
    </g>
  </g>
</svg>
